<?xml version="1.0" standalone="no"?>
<!DOCTYPE svg PUBLIC "-//W3C//DTD SVG 20010904//EN"
 "http://www.w3.org/TR/2001/REC-SVG-20010904/DTD/svg10.dtd">
<svg version="1.0" xmlns="http://www.w3.org/2000/svg"
 width="282.000000pt" height="284.000000pt" viewBox="0 0 282.000000 284.000000"
 preserveAspectRatio="xMidYMid meet">
<metadata>
Created by potrace 1.10, written by Peter Selinger 2001-2011
</metadata>
<g transform="translate(0.000000,284.000000) scale(0.100000,-0.100000)"
fill="#000000" stroke="none">
<path d="M1256 2410 c-39 -32 -73 -68 -78 -79 -9 -24 4 -28 22 -6 17 21 37 19
52 -5 9 -14 24 -20 51 -20 31 0 39 -4 47 -25 5 -14 12 -25 14 -25 3 0 23 19
45 43 43 45 66 89 58 110 -6 16 -102 67 -125 67 -10 -1 -48 -27 -86 -60z"/>
<path d="M526 2374 c-19 -50 4 -130 51 -179 47 -49 98 -70 224 -96 56 -12 120
-27 142 -35 54 -19 61 -18 74 14 7 15 22 39 34 53 25 31 19 62 -14 84 -12 8
-80 21 -152 29 -71 9 -153 22 -181 31 -56 16 -127 63 -144 95 -13 24 -26 26
-34 4z"/>
<path d="M1259 2191 c-34 -34 -37 -73 -13 -143 13 -39 21 -48 57 -62 24 -9 50
-16 59 -16 15 0 48 35 48 51 0 4 -24 15 -52 24 -101 33 -101 62 0 80 66 12 78
32 41 71 -34 36 -101 34 -140 -5z"/>
<path d="M1373 2109 c-44 -13 -41 -26 10 -49 53 -24 66 -24 97 0 l25 20 -24
20 c-25 21 -56 24 -108 9z"/>
<path d="M625 2061 c-45 -23 -81 -70 -96 -125 -21 -76 13 -145 132 -271 50
-54 82 -96 86 -115 3 -17 11 -29 17 -27 13 4 13 79 1 209 -13 143 20 200 149
258 38 17 65 35 60 39 -24 22 -118 44 -209 48 -87 4 -105 2 -140 -16z"/>
<path d="M1704 2069 c-3 -6 3 -24 15 -39 23 -32 24 -32 -54 -45 -54 -9 -75
-22 -75 -46 0 -11 -10 -33 -22 -49 -19 -26 -20 -34 -10 -68 16 -52 16 -70 0
-54 -25 25 -26 9 -1 -64 22 -65 28 -75 47 -72 20 3 21 10 26 114 4 84 9 117
23 138 25 38 33 26 11 -16 -21 -39 -26 -190 -7 -209 9 -9 31 -7 95 10 46 12
93 26 106 32 l23 9 -22 37 c-21 34 -21 36 -3 28 10 -5 49 -9 87 -10 60 -1 70
-4 93 -28 31 -33 84 -38 84 -8 0 11 -4 23 -10 26 -23 14 -8 25 29 19 33 -5 41
-3 50 14 15 28 14 67 -1 80 -36 29 -233 133 -280 147 -29 9 -84 28 -121 41
-79 28 -74 27 -83 13z"/>
<path d="M2330 2008 c-113 -28 -209 -54 -214 -58 -4 -5 2 -13 14 -20 18 -10
51 -2 208 50 289 95 287 101 -8 28z"/>
<path d="M952 1989 c-47 -15 -76 -33 -112 -67 -60 -58 -68 -92 -52 -222 19
-154 17 -177 -20 -212 l-33 -31 40 7 c53 10 124 42 153 69 39 36 70 108 86
199 31 177 77 231 201 232 48 1 70 -5 109 -27 57 -32 60 -32 47 -9 -11 20
-109 56 -195 72 -87 15 -153 12 -224 -11z"/>
<path d="M1160 1923 c-24 -31 -21 -50 6 -43 29 6 76 5 107 -4 34 -10 37 9 6
48 -29 37 -89 37 -119 -1z"/>
<path d="M1317 1883 c-3 -21 -11 -59 -18 -85 -15 -58 -7 -70 62 -93 76 -26 95
3 67 99 -12 38 -77 116 -97 116 -5 0 -11 -17 -14 -37z"/>
<path d="M1186 1859 c-36 -10 -46 -24 -46 -66 l0 -33 60 0 59 0 7 35 c10 55
-21 80 -80 64z"/>
<path d="M1477 1803 c-7 -7 -10 -103 -3 -103 26 0 36 16 36 61 0 46 -13 63
-33 42z"/>
<path d="M1138 1730 c-10 -6 -14 -18 -11 -30 8 -30 19 -33 53 -15 30 16 31 16
21 -4 -15 -27 -15 -28 20 -40 54 -19 78 -14 85 16 8 30 -15 53 -53 53 -14 0
-23 6 -23 15 0 17 -64 21 -92 5z"/>
<path d="M1930 1669 c0 -24 23 -21 28 4 2 10 -3 17 -12 17 -10 0 -16 -9 -16
-21z"/>
<path d="M1330 1646 c-6 -19 -9 -40 -5 -46 3 -5 29 -10 57 -10 39 0 57 -6 81
-26 27 -22 32 -24 45 -10 37 37 -37 107 -131 123 -33 5 -35 3 -47 -31z"/>
<path d="M1830 1665 c-25 -7 -71 -21 -103 -30 -50 -14 -58 -20 -55 -38 3 -19
8 -21 53 -18 27 1 57 7 67 12 9 5 26 9 38 9 11 0 35 10 53 22 18 13 34 24 36
25 7 5 -22 33 -33 32 -6 0 -31 -7 -56 -14z"/>
<path d="M1981 1621 c-15 -9 -14 -16 13 -141 17 -78 41 -123 70 -128 20 -4 21
32 5 110 -21 98 -63 174 -88 159z"/>
<path d="M1236 1593 c-4 -9 -9 -42 -13 -74 -7 -69 5 -79 68 -59 45 15 132 87
123 101 -3 5 -27 9 -53 9 -33 0 -56 6 -74 20 -31 24 -43 25 -51 3z"/>
<path d="M1581 1601 c-44 -12 -37 -31 12 -31 49 0 62 7 46 27 -12 14 -21 15
-58 4z"/>
<path d="M1890 1593 c-70 -33 -96 -42 -139 -52 -80 -18 -74 -62 11 -80 29 -6
88 -19 131 -28 91 -19 101 -14 85 46 -18 71 -40 131 -46 130 -4 0 -23 -8 -42
-16z"/>
<path d="M1121 1516 c-10 -11 -8 -23 8 -55 25 -49 33 -54 56 -37 17 12 16 15
-3 59 -21 48 -40 58 -61 33z"/>
<path d="M1416 1512 c-10 -12 -68 -42 -130 -68 -131 -55 -167 -77 -223 -133
-70 -71 -121 -175 -75 -156 76 33 105 38 164 27 35 -7 74 -22 93 -37 19 -14
37 -25 40 -25 8 0 84 162 126 267 18 47 29 90 27 111 -3 34 -3 34 -22 14z"/>
<path d="M1617 1524 c-11 -11 13 -34 35 -34 13 0 18 6 16 18 -3 17 -38 29 -51
16z"/>
<path d="M1465 1495 c-4 -16 -36 -106 -73 -200 -48 -125 -74 -179 -98 -202
-30 -31 -36 -33 -106 -33 -86 0 -122 -15 -126 -52 -4 -34 51 -79 173 -141 120
-62 158 -95 196 -172 17 -36 36 -62 42 -58 6 4 7 44 2 112 -16 213 -12 276 25
381 23 67 34 120 37 181 6 95 -3 137 -41 184 l-24 30 -7 -30z"/>
<path d="M1596 1466 c-22 -16 -10 -30 59 -68 51 -29 61 -39 68 -71 5 -20 13
-37 18 -37 5 0 27 11 49 25 22 14 64 33 95 43 30 9 53 22 52 27 -2 6 -76 29
-165 51 -125 32 -165 39 -176 30z"/>
<path d="M492 1434 c-24 -22 -36 -49 -53 -114 -31 -121 -34 -171 -13 -211 11
-21 20 -68 24 -124 6 -84 9 -94 48 -154 31 -47 42 -74 42 -103 0 -21 4 -38 9
-38 16 0 71 70 71 91 0 12 -7 46 -16 76 -15 50 -15 61 0 134 9 44 16 89 17
102 1 20 2 19 13 -6 11 -26 14 -27 26 -12 11 14 12 27 1 76 -8 42 -9 64 -1 79
15 28 40 25 40 -5 0 -36 27 -45 139 -45 l101 0 20 33 c16 25 20 50 20 114 0
45 -4 84 -9 88 -22 13 -107 -18 -164 -60 -32 -25 -65 -45 -73 -45 -7 0 -31 24
-53 53 -70 95 -136 120 -189 71z"/>
<path d="M1036 1421 c-20 -22 -30 -81 -17 -100 8 -12 18 -8 56 24 26 21 49 44
52 51 15 40 -60 60 -91 25z"/>
<path d="M1567 1412 c-3 -4 -2 -32 1 -62 l7 -55 21 30 c35 51 35 53 5 74 -16
12 -32 18 -34 13z"/>
<path d="M1654 1352 c-13 -9 -34 -46 -34 -62 0 -7 15 -10 38 -8 30 2 38 7 40
26 2 13 -2 30 -8 38 -14 16 -20 17 -36 6z"/>
<path d="M1854 1322 c-28 -16 -68 -41 -89 -57 l-38 -29 5 -93 c6 -113 19 -136
85 -152 26 -7 59 -19 72 -28 20 -13 30 -13 68 -3 56 16 50 34 -13 38 -44 3
-63 13 -64 35 0 4 9 3 19 -3 11 -5 37 -10 59 -10 22 0 68 -9 102 -20 34 -11
86 -20 116 -20 62 0 99 -12 108 -35 8 -21 -45 -134 -75 -161 -13 -12 -28 -28
-34 -37 -5 -9 -22 -18 -37 -21 -39 -7 -46 -13 -63 -53 -24 -56 -20 -73 16 -73
37 0 64 14 104 54 18 17 43 39 57 48 16 11 37 46 58 98 18 44 45 98 61 120 28
39 37 82 21 107 -4 7 -27 19 -51 28 -24 8 -69 30 -100 49 -31 18 -81 46 -111
61 -30 16 -49 30 -42 32 17 6 15 48 -3 84 -38 73 -140 91 -231 41z"/>
<path d="M1639 1254 c-42 -21 -45 -73 -9 -155 20 -45 30 -84 30 -117 l0 -49
70 -6 c80 -7 141 7 118 28 -7 6 -34 20 -61 29 -26 10 -51 26 -56 35 -6 9 -15
66 -22 125 -13 118 -24 135 -70 110z"/>
<path d="M1561 1235 c-25 -59 -71 -239 -71 -277 l0 -38 59 0 c97 0 108 25 65
137 -15 38 -30 100 -33 138 -7 68 -8 69 -20 40z"/>
<path d="M1040 1153 c-8 -3 -33 -14 -54 -24 -39 -18 -40 -18 -53 1 -13 18 -26
20 -120 20 l-105 0 6 -32 c3 -18 26 -62 50 -98 24 -36 46 -73 49 -83 9 -25 -9
-65 -49 -110 -26 -29 -34 -45 -30 -61 29 -100 36 -140 36 -208 0 -87 11 -121
46 -137 16 -7 24 -19 24 -35 0 -51 7 -56 86 -56 69 0 74 1 74 21 0 13 -23 44
-60 79 -68 65 -75 79 -84 177 -6 56 -4 79 8 102 21 39 90 96 163 135 69 37 80
67 38 106 -36 33 -34 85 5 136 36 48 39 74 8 73 -13 0 -30 -3 -38 -6z"/>
<path d="M1120 1128 c-10 -17 -17 -35 -14 -40 6 -9 95 -11 118 -2 28 11 18 39
-19 57 -50 24 -63 21 -85 -15z"/>
<path d="M1937 933 c-46 -12 -61 -21 -68 -40 -5 -14 -13 -91 -18 -172 -6 -86
-16 -164 -25 -190 -22 -60 -21 -65 19 -105 24 -24 35 -44 35 -65 0 -36 15 -42
90 -34 51 5 60 9 60 25 0 11 -15 33 -32 49 -18 16 -46 40 -62 54 -27 25 -28
29 -24 103 3 66 10 91 50 177 37 80 68 176 68 210 0 8 -32 4 -93 -12z"/>
<path d="M1088 853 c-42 -44 -72 -99 -64 -118 3 -8 39 -36 80 -64 67 -46 176
-157 176 -181 0 -5 -6 -21 -12 -36 -12 -25 -10 -29 24 -58 20 -18 48 -38 63
-46 23 -12 28 -12 35 0 15 23 12 58 -12 132 -20 63 -28 73 -94 129 -40 33 -78
73 -84 90 -12 28 -10 75 6 126 5 18 -1 26 -27 42 -19 12 -39 21 -44 21 -6 0
-27 -17 -47 -37z"/>
</g>
</svg>
